<svg xmlns="http://www.w3.org/2000/svg" width="1em" height="1em" viewBox="0 0 24 24">
    <path class="plus" fill="#cccccc" d="M4.139 20q-.703 0-1.06-.606q-.358-.605.01-1.221L10.95 4.789q.187-.299.467-.457t.58-.159q.301 0 .584.159t.469.457l7.88 13.384q.368.616.01 1.221q-.357.606-1.06.606zm7.361-4.846v1.442q0 .213.144.357t.357.143t.356-.143t.143-.357v-1.442h1.48q.213 0 .357-.144t.144-.357t-.144-.356t-.356-.143H12.5V12.73q0-.213-.144-.356t-.357-.144t-.356.144t-.143.356v1.423h-1.461q-.213 0-.357.144t-.144.357t.144.356t.356.143z" />
</svg>