<svg xmlns="http://www.w3.org/2000/svg" width="1em" height="1em" viewBox="0 0 24 24">
    <g fill="none">
        <path d="M24 0v24H0V0zM12.593 23.258l-.011.002l-.071.035l-.02.004l-.014-.004l-.071-.035q-.016-.005-.024.005l-.004.01l-.017.428l.005.02l.01.013l.104.074l.015.004l.012-.004l.104-.074l.012-.016l.004-.017l-.017-.427q-.004-.016-.017-.018m.265-.113l-.013.002l-.185.093l-.01.01l-.003.011l.018.43l.005.012l.008.007l.201.093q.019.005.029-.008l.004-.014l-.034-.614q-.005-.019-.02-.022m-.715.002a.02.02 0 0 0-.027.006l-.006.014l-.034.614q.001.018.017.024l.015-.002l.201-.093l.01-.008l.004-.011l.017-.43l-.003-.012l-.01-.01z" />
        <path class="shou" fill="none" d="M9.5 2a2.5 2.5 0 0 1 2.495 2.336L12 4.5v4.605l5.442.605a4 4 0 0 1 3.553 3.772l.005.203V14a8 8 0 0 1-7.75 7.996L13 22h-.674a8 8 0 0 1-7.024-4.171l-.131-.251l-2.842-5.684c-.36-.72-.093-1.683.747-2.028c1.043-.427 2.034-.507 3.055.012q.333.17.654.414l.215.17V4.5A2.5 2.5 0 0 1 9.5 2M4 6a1 1 0 0 1 0 2H3a1 1 0 0 1 0-2zm12-1a1 1 0 0 1 .117 1.993L16 7h-1a1 1 0 0 1-.117-1.993L15 5zM4.707 1.293l1 1a1 1 0 0 1-1.414 1.414l-1-1a1 1 0 0 1 1.414-1.414m11 0a1 1 0 0 1 0 1.414l-1 1a1 1 0 1 1-1.414-1.414l1-1a1 1 0 0 1 1.414 0" />
    </g>
</svg>